<?xml version="1.0" standalone="no"?>
<!DOCTYPE svg PUBLIC "-//W3C//DTD SVG 20010904//EN"
 "http://www.w3.org/TR/2001/REC-SVG-20010904/DTD/svg10.dtd">
<svg version="1.0" xmlns="http://www.w3.org/2000/svg"
 width="1024.000000pt" height="1024.000000pt" viewBox="0 0 1024.000000 1024.000000"
 preserveAspectRatio="xMidYMid meet">
<metadata>
Created by potrace 1.14, written by Peter Selinger 2001-2017
</metadata>
<g transform="translate(0.000000,1024.000000) scale(0.100000,-0.100000)"
fill="#000000" stroke="none">
<path d="M4945 6993 c-35 -3 -165 -24 -235 -38 -14 -3 -38 -8 -54 -11 -16 -2
-34 -8 -39 -11 -5 -3 -23 -9 -41 -13 -119 -30 -349 -137 -485 -228 -107 -70
-91 -58 -191 -144 -298 -256 -506 -589 -601 -961 -44 -174 -54 -261 -54 -472
0 -200 18 -337 60 -485 9 -30 20 -68 25 -85 22 -83 104 -265 169 -379 98 -172
247 -344 439 -509 29 -24 179 -128 237 -164 101 -61 329 -155 457 -188 68 -18
78 -21 153 -36 155 -31 495 -33 650 -4 364 70 682 223 934 450 339 304 570
746 619 1185 14 120 4 502 -13 530 -2 3 -6 24 -10 48 -3 23 -15 75 -25 115
-174 665 -699 1183 -1367 1352 -138 34 -234 46 -408 49 -99 2 -198 1 -220 -1z"/>
</g>
</svg>
